<svg width="55" height="49" viewBox="0 0 55 49" fill="none" xmlns="http://www.w3.org/2000/svg">
<path fill-rule="evenodd" clip-rule="evenodd" d="M25.4747 16.0449C25.4747 10.3763 30.0699 5.78113 35.7384 5.78113C39.0667 5.78113 41.7221 7.35335 43.5011 9.63782C45.3828 9.25213 47.1867 8.55431 48.8381 7.57326C48.1986 9.563 46.86 11.2537 45.07 12.3326L45.0766 12.3424C46.7758 12.1371 48.4351 11.6803 50 10.9868L49.9967 10.9934C48.8906 12.651 47.5022 14.1116 45.9004 15.3031C45.9858 15.884 46.0317 16.465 46.0317 17.0427C46.0317 29.1445 36.8118 43.2189 19.8554 43.2189C14.8555 43.2233 9.96018 41.7875 5.75471 39.0833C5.55672 38.9562 5.38837 38.788 5.26106 38.5902C5.13375 38.3924 5.05046 38.1695 5.01684 37.9366C4.98322 37.7038 5.00006 37.4664 5.06621 37.2407C5.13235 37.0149 5.24627 36.806 5.40022 36.6281C5.54663 36.3847 5.76011 36.1887 6.0151 36.0635C6.27008 35.9383 6.55575 35.8893 6.83787 35.9224C9.84445 36.2769 12.8445 35.9093 15.4933 34.7539C14.1868 34.1767 13.0172 33.3296 12.0611 32.2684C11.1051 31.2072 10.3844 29.9558 9.9462 28.5963C9.86517 28.3435 9.85381 28.0735 9.91331 27.8147C9.9728 27.5559 10.101 27.318 10.2843 27.1259C9.20558 26.1792 8.34154 25.0131 7.75001 23.7054C7.15847 22.3978 6.85308 20.979 6.85428 19.5438V19.4322C6.8542 19.0888 6.97377 18.7561 7.19241 18.4914C7.41106 18.2266 7.71512 18.0463 8.05231 17.9814C7.30815 16.5453 6.92086 14.9511 6.92321 13.3337C6.92321 11.7976 6.93305 9.86102 8.01293 8.11484C8.1283 7.92985 8.2832 7.77269 8.4665 7.65466C8.6498 7.53662 8.85696 7.46062 9.07311 7.43212C9.38653 7.33327 9.7224 7.3308 10.0372 7.42502C10.3521 7.51923 10.6314 7.70581 10.839 7.96057C14.4978 12.4615 19.731 15.4032 25.478 16.1893V16.0449H25.4747ZM19.8554 39.9367C17.3441 39.9385 14.8498 39.5248 12.4736 38.7124C15.3317 38.2409 18.0277 37.0655 20.3182 35.2922C20.5583 35.1039 20.7342 34.8459 20.8216 34.5536C20.9091 34.2613 20.9039 33.9491 20.8068 33.6599C20.7097 33.3706 20.5254 33.1186 20.2792 32.9383C20.033 32.7581 19.7371 32.6585 19.432 32.6532C18.3332 32.6335 17.2537 32.3601 16.2779 31.8546C15.302 31.349 14.4561 30.6248 13.8062 29.7386C14.4298 29.6893 15.0403 29.581 15.6311 29.4235C15.9532 29.3374 16.2367 29.1448 16.4354 28.8772C16.6342 28.6096 16.7366 28.2826 16.7259 27.9494C16.7153 27.6162 16.5922 27.2964 16.3768 27.042C16.1613 26.7876 15.8661 26.6135 15.5392 26.5482C14.2905 26.2952 13.132 25.7134 12.1833 24.8628C11.2347 24.0123 10.5304 22.9239 10.1431 21.7101C10.7996 21.8676 11.4856 21.9628 12.188 21.9858C12.509 21.9966 12.8248 21.9025 13.0874 21.7177C13.3501 21.5329 13.5454 21.2676 13.6438 20.9618C13.7421 20.6561 13.7381 20.3266 13.6324 20.0233C13.5266 19.7201 13.3249 19.4595 13.0578 19.2812C12.0784 18.6287 11.2753 17.7444 10.7198 16.7068C10.1644 15.6693 9.87386 14.5106 9.87399 13.3337C9.87399 12.7823 9.88383 12.2932 9.91666 11.8468C14.5095 16.5339 20.6997 19.3184 27.2537 19.6455C27.5068 19.6584 27.7594 19.6125 27.9918 19.5114C28.2242 19.4103 28.43 19.2567 28.5931 19.0628C28.7562 18.8688 28.8722 18.6398 28.9319 18.3935C28.9917 18.1472 28.9936 17.8905 28.9375 17.6433C28.6965 16.6184 28.6903 15.5523 28.9196 14.5247C29.1488 13.4971 29.6075 12.5347 30.2614 11.7094C30.9152 10.8842 31.7472 10.2175 32.6951 9.75928C33.643 9.30106 34.6823 9.06317 35.7352 9.06342C39.7855 9.06342 42.7461 12.8151 42.7461 17.046C42.7461 27.7331 34.6225 39.9367 19.8554 39.9367Z" fill="white"/>
</svg>
