<svg width="12" height="16" viewBox="0 0 12 16" fill="none" xmlns="http://www.w3.org/2000/svg">
<path fill-rule="evenodd" clip-rule="evenodd" d="M6 0C5.44775 0 5 0.447693 5 1V12.6715L2.12134 9.79291C1.73083 9.40234 1.09766 9.40234 0.707153 9.79291C0.316528 10.1834 0.316528 10.8166 0.707153 11.2071L4.94971 15.4498C5.01392 15.514 5.08472 15.5677 5.15991 15.6108C5.38184 15.8527 5.67664 16 6 16C6.36072 16 6.68579 15.8167 6.91394 15.5234C6.98816 15.4805 7.05786 15.4274 7.12134 15.364L11.364 11.1213C11.7545 10.7308 11.7545 10.0977 11.364 9.70709C10.9734 9.31659 10.3403 9.31659 9.94971 9.70709L7 12.6569V1C7 0.447693 6.55225 0 6 0Z" fill="#fff"/>
</svg>
