<svg width="55" height="55" viewBox="0 0 55 55" fill="none" xmlns="http://www.w3.org/2000/svg">
<path fill-rule="evenodd" clip-rule="evenodd" d="M27.5 8.75C17.1447 8.75 8.75 17.1447 8.75 27.5C8.75 37.8553 17.1447 46.25 27.5 46.25C37.8553 46.25 46.25 37.8553 46.25 27.5C46.25 17.1447 37.8553 8.75 27.5 8.75ZM5 27.5C5 15.0736 15.0736 5 27.5 5C39.9264 5 50 15.0736 50 27.5C50 39.9264 39.9264 50 27.5 50C15.0736 50 5 39.9264 5 27.5Z" fill="white"/>
<path fill-rule="evenodd" clip-rule="evenodd" d="M22.9843 47.6296C22.8029 47.3955 22.8029 45.3099 22.9843 41.3731C21.0419 41.4402 19.8148 41.3054 19.3028 40.9687C18.5347 40.4637 17.7658 38.9062 17.0835 37.8086C16.4013 36.711 14.8872 36.5375 14.2757 36.2921C13.6642 36.0467 13.5107 35.0465 15.9606 35.8029C18.4104 36.5594 18.5299 38.6194 19.3028 39.1011C20.0756 39.5827 21.9233 39.372 22.7608 38.9861C23.5983 38.6002 23.5366 37.1635 23.686 36.5944C23.8748 36.0631 23.2093 35.9452 23.1947 35.9409C22.377 35.9409 18.0818 35.0068 16.902 30.8474C15.7222 26.6881 17.242 23.9694 18.0527 22.8007C18.5933 22.0216 18.5455 20.3611 17.9093 17.8191C20.2189 17.5239 22.0013 18.2509 23.2563 20.0001C23.2575 20.0101 24.9017 19.0223 27.5003 19.0223C30.0988 19.0223 31.0206 19.8269 31.7321 20.0001C32.4435 20.1732 33.0125 16.9382 37.4064 17.8191C36.489 19.6221 35.7208 21.8751 36.3072 22.8007C36.8936 23.7264 39.1948 26.67 37.7812 30.8474C36.8388 33.6324 34.9862 35.3302 32.2235 35.9409C31.9067 36.042 31.7483 36.2051 31.7483 36.4301C31.7483 36.7677 32.1766 36.8046 32.7936 38.3859C33.205 39.4401 33.2347 42.4512 32.8828 47.419C31.9912 47.646 31.2976 47.7983 30.802 47.8762C29.9232 48.0143 28.969 48.0918 28.0315 48.1217C27.094 48.1516 26.7684 48.1482 25.4722 48.0276C24.6082 47.9471 23.7789 47.8145 22.9843 47.6296Z" fill="white"/>
</svg>
